<?xml version="1.0" encoding="UTF-8" standalone="no"?>
<svg xmlns="http://www.w3.org/2000/svg" width="48px" height="48px" baseProfile="tiny" version="1.1" xmlns:xlink="http://www.w3.org/1999/xlink" viewBox="0 0 48 48">
 <defs>
  <linearGradient id="linearGradient2813" y2="84.287" gradientUnits="userSpaceOnUse" y1="93.338" gradientTransform="matrix(2.262742,0.000000,0.000000,0.441942,1.000000,-0.875000)" x2="10.22" x1="10.496">
   <stop stop-color="#FFF" offset="0"/>
   <stop stop-color="#cbcbcb" offset="1"/>
  </linearGradient>
  <linearGradient id="linearGradient2801" y2="4.953" gradientUnits="userSpaceOnUse" y1="4.953" gradientTransform="matrix(0.254000,0.000000,1.822151e-16,3.759813,0.788629,0.148567)" x2="41.219" x1="35.433">
   <stop stop-color="#000" stop-opacity="0.068627454" offset="0"/>
   <stop stop-color="#FFF" offset="1"/>
  </linearGradient>
  <linearGradient id="linearGradient2112" y2="21.27" gradientUnits="userSpaceOnUse" x2="-2.7583" gradientTransform="matrix(1.025428,0.000000,0.000000,0.957303,0.000000,-0.806758)" y1="26.652" x1="73.362">
   <stop stop-color="#FFF" offset="0"/>
   <stop stop-color="#FFF" stop-opacity="0" offset="1"/>
  </linearGradient>
  <radialGradient id="radialGradient21650" gradientUnits="userSpaceOnUse" cy="36.75" cx="25.125" gradientTransform="matrix(1.000000,0.000000,0.000000,0.595238,-6.245005e-16,14.87500)" r="15.75">
   <stop stop-color="#000" offset="0"/>
   <stop stop-color="#000" stop-opacity="0" offset="1"/>
  </radialGradient>
  <linearGradient id="linearGradient2100" y2="22.133" gradientUnits="userSpaceOnUse" x2="14.511" gradientTransform="matrix(0.957750,0.000000,0.000000,1.027989,1.000000,-0.571911)" y1="22.133" x1="6.5872">
   <stop stop-color="#d6e3f0" offset="0"/>
   <stop stop-color="#95b1cf" offset="1"/>
  </linearGradient>
 </defs>
 <g id="layer1">
  <path id="path21642" style="marker-end:none;color:#000000;marker-start:none;marker-mid:none;" d="M40.88,36.75c0,1.23-0.41,2.45-1.2,3.59-0.8,1.14-1.96,2.17-3.42,3.04s-3.2,1.56-5.11,2.03-3.96,0.72-6.02,0.72c-2.07,0-4.12-0.25-6.03-0.72s-3.65-1.16-5.11-2.03-2.62-1.9-3.42-3.04c-0.788-1.14-1.195-2.36-1.195-3.59s0.407-2.45,1.195-3.59c0.8-1.14,1.96-2.17,3.42-3.04s3.2-1.56,5.11-2.03,3.96-0.71,6.02-0.71c2.07,0,4.12,0.24,6.03,0.71s3.65,1.16,5.11,2.03,2.62,1.9,3.42,3.04c0.79,1.14,1.2,2.36,1.2,3.59z" fill-rule="evenodd" transform="matrix(1.150794,0.000000,0.000000,1.000000,-4.913690,0.625000)" fill="url(#radialGradient21650)"/>
  <path id="path21640" opacity="0.48538011" stroke-linejoin="round" style="marker-end:none;color:#000000;marker-start:none;stroke-dasharray:none;marker-mid:none;" d="M37.21,21.76h7.23c0.35,0,0.55,0.04,0.6,0.41l0.9,8.12c0.08,0.55,0.21,0.86-0.16,0.88h-8.73l0.16-9.41z" stroke-dashoffset="0" stroke="#FFF" stroke-linecap="round" stroke-miterlimit="4" stroke-width="1.00000072" fill="none"/>
  <path id="rect1408" stroke-linejoin="round" style="marker-end:none;color:#000000;marker-start:none;marker-mid:none;" d="M6.364,5.519c0.091-1.915,1.008-2.965,2.715-2.97l29.331-0.09c0.24-0.001,0.56,0.2,0.59,0.45l3.26,32.961-1.32,0.05,0.63,6.45c0.06,0.62-0.18,1.16-1.07,1.16l-30.711,0.15c-2.532,0.01-5.135-2.08-5.013-4.66l1.588-33.501z" fill-rule="nonzero" stroke-dashoffset="0" stroke="#364878" stroke-linecap="round" stroke-miterlimit="4" stroke-width="1.00000012" fill="#5b6b94"/>
  <path id="path2489" style="marker-end:none;color:#000000;marker-start:none;marker-mid:none;" fill-rule="nonzero" fill="url(#linearGradient2813)" d="M40.13,34.88l-29.19,0.12c-1.559,0.18-2.815,1.4-2.815,3s1.256,2.82,2.815,3l29.19,0.13v-0.07c-1.66-0.08-3-1.39-3-3.06s1.34-2.98,3-3.06v-0.06z"/>
  <path id="path2784" style="marker-end:none;color:#000000;marker-start:none;marker-mid:none;" fill-rule="nonzero" fill="url(#linearGradient2100)" d="M9.688,2.813c-1.707,0-2.638,1.009-2.719,2.861l-1.656,32.156c-0.092,3.07,1.826,4.82,3.812,5.33-4.25-1.63-3.687-9,1.625-8.96h30.9l-3.31-30.957c-0.03-0.24-0.35-0.43-0.6-0.43h-28.052z"/>
  <rect id="rect2793" opacity="0.48045" style="marker-end:none;color:#000000;marker-start:none;marker-mid:none;" fill-rule="nonzero" transform="matrix(1.000000,0.000000,-3.582731e-2,0.999358,0.000000,0.000000)" height="29.605" width="2" y="3.9685" x="9.7886" fill="url(#linearGradient2801)"/>
  <path id="path2104" stroke-linejoin="miter" style="marker-end:none;color:#000000;marker-start:none;stroke-dasharray:none;marker-mid:none;" d="M9.875,3.334c-1.684,0-2.337,0.732-2.417,2.554l-1.299,29.892c0.934-1.61,2.44-2.19,4.851-2.19h29.95l-2.82-29.833c-0.03-0.237-0.35-0.423-0.59-0.423h-27.675z" stroke-dashoffset="0" stroke="url(#linearGradient2112)" stroke-linecap="round" stroke-miterlimit="20" stroke-width="1.00000012" fill="none"/>
 </g>
</svg>